<?xml version="1.0" encoding="UTF-8"?>
<svg width="700pt" height="700pt" version="1.1" viewBox="0 0 700 700" xmlns="http://www.w3.org/2000/svg">
 <g>
  <path d="m315 253.75c4.832 0 8.75-3.918 8.75-8.75s-3.918-8.75-8.75-8.75h-17.5v-8.75c0-4.832-3.918-8.75-8.75-8.75s-8.75 3.918-8.75 8.75v8.75h-17.5c-4.832 0-8.75 3.918-8.75 8.75v35c0 4.832 3.918 8.75 8.75 8.75h43.75v17.5h-43.75c-4.832 0-8.75 3.918-8.75 8.75s3.918 8.75 8.75 8.75h17.5v8.75c0 4.832 3.918 8.75 8.75 8.75s8.75-3.918 8.75-8.75v-8.75h17.5c4.832 0 8.75-3.918 8.75-8.75v-35c0-4.832-3.918-8.75-8.75-8.75h-43.75v-17.5z"/>
  <path d="m516.25 280c0-10.512-4.7344-19.836-12.07-26.25 7.3359-6.4141 12.07-15.738 12.07-26.25 0-19.328-15.672-35-35-35h-134.5c-16.621-11.039-36.547-17.5-57.996-17.5-57.988 0-105 47.012-105 105s47.012 105 105 105c21.449 0 41.375-6.4609 57.996-17.5h134.5c19.328 0 35-15.672 35-35 0-10.512-4.7344-19.836-12.07-26.25 7.3359-6.4141 12.07-15.738 12.07-26.25zm-17.5-52.5c0 9.6484-7.8516 17.5-17.5 17.5h-93.602c-4.6211-13.055-11.73-24.898-20.789-35h114.39c9.6484 0 17.5 7.8516 17.5 17.5zm-297.5 52.5c0-48.246 39.254-87.5 87.5-87.5s87.5 39.254 87.5 87.5-39.254 87.5-87.5 87.5-87.5-39.254-87.5-87.5zm297.5 52.5c0 9.6484-7.8516 17.5-17.5 17.5h-114.39c9.0625-10.102 16.168-21.945 20.789-35h93.605c9.6484 0 17.5 7.8516 17.5 17.5zm-106.57-35c0.96094-5.7031 1.5742-11.523 1.5742-17.5s-0.61719-11.797-1.5742-17.5h89.074c9.6484 0 17.5 7.8516 17.5 17.5s-7.8516 17.5-17.5 17.5z"/>
 </g>
</svg>
