<?xml version="1.0" encoding="UTF-8"?>
<svg width="700pt" height="700pt" version="1.1" viewBox="0 0 700 700" xmlns="http://www.w3.org/2000/svg">
 <g>
  <path d="m542.5 70h-385c-28.949 0-52.5 23.551-52.5 52.5v175c0 28.949 23.551 52.5 52.5 52.5h385c28.949 0 52.5-23.551 52.5-52.5v-175c0-28.949-23.551-52.5-52.5-52.5zm17.5 227.5c0 9.6484-7.8516 17.5-17.5 17.5h-385c-9.6484 0-17.5-7.8516-17.5-17.5v-175c0-9.6484 7.8516-17.5 17.5-17.5h385c9.6484 0 17.5 7.8516 17.5 17.5z"/>
  <path d="m350 164.38c7.5352 0 13.664 6.3047 13.664 14.055 0 9.6641 7.8359 17.5 17.5 17.5 9.6641 0 17.5-7.8359 17.5-17.5 0-21.043-13.277-38.879-31.773-45.832-1.4805-8.168-8.2969-14.477-16.891-14.477s-15.41 6.3086-16.891 14.477c-18.496 6.9531-31.773 24.789-31.773 45.832 0 27.055 21.832 49.066 48.664 49.066 7.5352 0 13.664 6.3047 13.664 14.066 0 7.75-6.125 14.055-13.664 14.055-7.5352 0-13.664-6.3047-13.664-14.055 0-9.6641-7.8359-17.5-17.5-17.5-9.6641 0-17.5 7.8359-17.5 17.5 0 21.043 13.277 38.879 31.773 45.832 1.4805 8.1641 8.2969 14.477 16.891 14.477s15.41-6.3125 16.891-14.477c18.496-6.9531 31.773-24.789 31.773-45.832 0-27.055-21.832-49.066-48.664-49.066-7.5352 0-13.664-6.3047-13.664-14.066 0-7.75 6.1289-14.055 13.664-14.055z"/>
  <path d="m480.6 192.5h-0.17969c-9.6641 0-17.406 7.8359-17.406 17.5s7.9219 17.5 17.586 17.5c9.6641 0 17.5-7.8359 17.5-17.5s-7.8359-17.5-17.5-17.5z"/>
  <path d="m220.1 192.5h-0.17969c-9.6641 0-17.406 7.8359-17.406 17.5s7.9219 17.5 17.586 17.5c9.6641 0 17.5-7.8359 17.5-17.5s-7.8359-17.5-17.5-17.5z"/>
  <path d="m577.5 385h-455c-9.6641 0-17.5 7.8359-17.5 17.5s7.8359 17.5 17.5 17.5h455c9.6641 0 17.5-7.8359 17.5-17.5s-7.8359-17.5-17.5-17.5z"/>
  <path d="m577.5 455h-455c-9.6641 0-17.5 7.8359-17.5 17.5s7.8359 17.5 17.5 17.5h455c9.6641 0 17.5-7.8359 17.5-17.5s-7.8359-17.5-17.5-17.5z"/>
 </g>
</svg>
