<?xml version="1.0" encoding="UTF-8"?>
<svg width="700pt" height="700pt" version="1.1" viewBox="0 0 700 700" xmlns="http://www.w3.org/2000/svg" xmlns:xlink="http://www.w3.org/1999/xlink">
 <defs>
  <symbol id="l" overflow="visible">
   <path d="m37.516-2.25c-1.9297 1.0117-3.9453 1.7734-6.0469 2.2812-2.0938 0.50781-4.2812 0.76562-6.5625 0.76562-6.793 0-12.18-1.8984-16.156-5.7031-3.9688-3.8008-5.9531-8.957-5.9531-15.469 0-6.5195 1.9844-11.68 5.9531-15.484 3.9766-3.8008 9.3633-5.7031 16.156-5.7031 2.2812 0 4.4688 0.25781 6.5625 0.76562 2.1016 0.51172 4.1172 1.2656 6.0469 2.2656v8.4531c-1.9492-1.332-3.8711-2.3047-5.7656-2.9219-1.8984-0.625-3.8906-0.9375-5.9844-0.9375-3.7617 0-6.7188 1.2031-8.875 3.6094-2.1484 2.4062-3.2188 5.7266-3.2188 9.9531 0 4.2109 1.0703 7.5156 3.2188 9.9219 2.1562 2.4062 5.1133 3.6094 8.875 3.6094 2.0938 0 4.0859-0.30469 5.9844-0.92188 1.8945-0.625 3.8164-1.5977 5.7656-2.9219z"/>
  </symbol>
  <symbol id="c" overflow="visible">
   <path d="m27.453-22.281c-0.85547-0.40625-1.7109-0.70312-2.5625-0.89062-0.84375-0.19531-1.6953-0.29688-2.5469-0.29688-2.5234 0-4.4609 0.80859-5.8125 2.4219-1.3555 1.6172-2.0312 3.9297-2.0312 6.9375v14.109h-9.7969v-30.625h9.7969v5.0312c1.25-2.0078 2.6914-3.4727 4.3281-4.3906 1.6328-0.91406 3.5859-1.375 5.8594-1.375 0.33203 0 0.6875 0.015625 1.0625 0.046875 0.38281 0.023438 0.94141 0.078125 1.6719 0.17188z"/>
  </symbol>
  <symbol id="a" overflow="visible">
   <path d="m35.281-15.391v2.7812h-22.891c0.23828 2.3047 1.0664 4.0273 2.4844 5.1719 1.4258 1.1484 3.4141 1.7188 5.9688 1.7188 2.0508 0 4.1562-0.30078 6.3125-0.90625 2.1641-0.61328 4.3906-1.5391 6.6719-2.7812v7.5469c-2.3125 0.875-4.6328 1.5391-6.9531 1.9844-2.3125 0.44531-4.625 0.67188-6.9375 0.67188-5.543 0-9.8516-1.4062-12.922-4.2188-3.0742-2.8203-4.6094-6.7734-4.6094-11.859 0-5 1.5039-8.9258 4.5156-11.781 3.0195-2.8633 7.1758-4.2969 12.469-4.2969 4.8125 0 8.6602 1.4492 11.547 4.3438 2.8945 2.8984 4.3438 6.7734 4.3438 11.625zm-10.062-3.2656c0-1.8516-0.54688-3.3477-1.6406-4.4844-1.0859-1.1445-2.5-1.7188-4.25-1.7188-1.8984 0-3.4375 0.53906-4.625 1.6094-1.1797 1.0625-1.9141 2.5938-2.2031 4.5938z"/>
  </symbol>
  <symbol id="h" overflow="visible">
   <path d="m18.438-13.781c-2.043 0-3.5781 0.35156-4.6094 1.0469-1.0312 0.6875-1.5469 1.7031-1.5469 3.0469 0 1.2422 0.41016 2.2148 1.2344 2.9219 0.83203 0.69922 1.9883 1.0469 3.4688 1.0469 1.8438 0 3.3906-0.66016 4.6406-1.9844 1.2578-1.3203 1.8906-2.9727 1.8906-4.9531v-1.125zm14.953-3.6875v17.469h-9.875v-4.5469c-1.3125 1.8672-2.793 3.2266-4.4375 4.0781-1.6367 0.84375-3.6328 1.2656-5.9844 1.2656-3.168 0-5.7422-0.92578-7.7188-2.7812-1.9805-1.8516-2.9688-4.2539-2.9688-7.2031 0-3.5938 1.2344-6.2266 3.7031-7.9062 2.4688-1.6758 6.3477-2.5156 11.641-2.5156h5.7656v-0.76562c0-1.5508-0.60938-2.6875-1.8281-3.4062s-3.125-1.0781-5.7188-1.0781c-2.0938 0-4.0469 0.21484-5.8594 0.64062-1.8047 0.41797-3.4766 1.043-5.0156 1.875v-7.4688c2.0938-0.50781 4.1953-0.89453 6.3125-1.1562 2.1133-0.25781 4.2266-0.39062 6.3438-0.39062 5.5195 0 9.5039 1.0898 11.953 3.2656 2.457 2.1797 3.6875 5.7188 3.6875 10.625z"/>
  </symbol>
  <symbol id="b" overflow="visible">
   <path d="m15.391-39.328v8.7031h10.094v7h-10.094v12.984c0 1.4297 0.28125 2.3906 0.84375 2.8906 0.57031 0.5 1.6953 0.75 3.375 0.75h5.0312v7h-8.3906c-3.8672 0-6.6055-0.80469-8.2188-2.4219-1.6172-1.6133-2.4219-4.3516-2.4219-8.2188v-12.984h-4.875v-7h4.875v-8.7031z"/>
  </symbol>
  <symbol id="g" overflow="visible">
   <path d="m25.547-26.141v-16.406h9.8438v42.547h-9.8438v-4.4375c-1.3555 1.8125-2.8438 3.1406-4.4688 3.9844-1.6172 0.83203-3.4922 1.25-5.625 1.25-3.7734 0-6.8711-1.5-9.2969-4.5-2.4297-3-3.6406-6.8594-3.6406-11.578 0-4.7266 1.2109-8.5859 3.6406-11.578 2.4258-3 5.5234-4.5 9.2969-4.5 2.1133 0 3.9844 0.42188 5.6094 1.2656 1.6328 0.84375 3.1289 2.1641 4.4844 3.9531zm-6.4531 19.828c2.0938 0 3.6914-0.76562 4.7969-2.2969 1.1016-1.5312 1.6562-3.7539 1.6562-6.6719 0-2.9141-0.55469-5.1406-1.6562-6.6719-1.1055-1.5312-2.7031-2.2969-4.7969-2.2969-2.0859 0-3.6797 0.76562-4.7812 2.2969-1.1055 1.5312-1.6562 3.7578-1.6562 6.6719 0 2.918 0.55078 5.1406 1.6562 6.6719 1.1016 1.5312 2.6953 2.2969 4.7812 2.2969z"/>
  </symbol>
  <symbol id="f" overflow="visible">
   <path d="m21-6.3125c2.0938 0 3.6914-0.76562 4.7969-2.2969 1.1016-1.5312 1.6562-3.7539 1.6562-6.6719 0-2.9141-0.55469-5.1406-1.6562-6.6719-1.1055-1.5312-2.7031-2.2969-4.7969-2.2969s-3.7031 0.77344-4.8281 2.3125c-1.1172 1.5312-1.6719 3.75-1.6719 6.6562 0 2.8984 0.55469 5.1172 1.6719 6.6562 1.125 1.543 2.7344 2.3125 4.8281 2.3125zm-6.5-19.828c1.3438-1.7891 2.832-3.1094 4.4688-3.9531 1.6445-0.84375 3.5352-1.2656 5.6719-1.2656 3.7695 0 6.8672 1.5 9.2969 4.5 2.4258 2.9922 3.6406 6.8516 3.6406 11.578 0 4.7188-1.2148 8.5781-3.6406 11.578-2.4297 3-5.5273 4.5-9.2969 4.5-2.1367 0-4.0273-0.42188-5.6719-1.2656-1.6367-0.85156-3.125-2.1758-4.4688-3.9688v4.4375h-9.7969v-42.547h9.7969z"/>
  </symbol>
  <symbol id="e" overflow="visible">
   <path d="m0.6875-30.625h9.7812l8.2344 20.781 7-20.781h9.7969l-12.891 33.531c-1.293 3.4062-2.8047 5.7852-4.5312 7.1406-1.7188 1.3633-3.9922 2.0469-6.8125 2.0469h-5.6562v-6.4375h3.0625c1.6562 0 2.8594-0.26562 3.6094-0.79688 0.75781-0.52344 1.3516-1.4648 1.7812-2.8281l0.26562-0.85938z"/>
  </symbol>
  <symbol id="d" overflow="visible">
   <path d="m5.1406-40.828h13.406l9.2969 21.844 9.3438-21.844h13.375v40.828h-9.9531v-29.859l-9.4062 22.016h-6.6719l-9.4062-22.016v29.859h-9.9844z"/>
  </symbol>
  <symbol id="k" overflow="visible">
   <path d="m4.7031-30.625h9.7969v30.625h-9.7969zm0-11.922h9.7969v7.9844h-9.7969z"/>
  </symbol>
  <symbol id="j" overflow="visible">
   <path d="m28.625-29.672v7.4375c-2.0938-0.875-4.1172-1.5312-6.0625-1.9688-1.9492-0.4375-3.793-0.65625-5.5312-0.65625-1.8555 0-3.2344 0.23438-4.1406 0.70312-0.89844 0.46094-1.3438 1.1719-1.3438 2.1406 0 0.78125 0.33594 1.3867 1.0156 1.8125 0.6875 0.41797 1.9141 0.72656 3.6875 0.92188l1.7188 0.25c5.0078 0.63672 8.3789 1.6836 10.109 3.1406 1.7383 1.4609 2.6094 3.7461 2.6094 6.8594 0 3.2734-1.2031 5.7305-3.6094 7.375-2.4062 1.6367-6 2.4531-10.781 2.4531-2.0234 0-4.1172-0.16406-6.2812-0.48438-2.1562-0.32031-4.375-0.80078-6.6562-1.4375v-7.4375c1.957 0.94922 3.957 1.6641 6 2.1406 2.0508 0.46875 4.1328 0.70312 6.25 0.70312 1.9141 0 3.3594-0.25781 4.3281-0.78125 0.96875-0.53125 1.4531-1.3164 1.4531-2.3594 0-0.875-0.33594-1.5234-1-1.9531-0.66797-0.42578-1.9961-0.75781-3.9844-1l-1.7188-0.21875c-4.3555-0.55078-7.4062-1.5625-9.1562-3.0312-1.75-1.4766-2.625-3.7227-2.625-6.7344 0-3.2383 1.1094-5.6406 3.3281-7.2031 2.2266-1.5703 5.6406-2.3594 10.234-2.3594 1.8008 0 3.6914 0.13672 5.6719 0.40625 1.9883 0.27344 4.1484 0.69922 6.4844 1.2812z"/>
  </symbol>
  <symbol id="i" overflow="visible">
   <path d="m5.1406-40.828h17.469c5.1953 0 9.1875 1.1562 11.969 3.4688 2.7812 2.3047 4.1719 5.5859 4.1719 9.8438 0 4.293-1.3906 7.5898-4.1719 9.8906-2.7812 2.3047-6.7734 3.4531-11.969 3.4531h-6.9375v14.172h-10.531zm10.531 7.625v11.406h5.8281c2.0391 0 3.6133-0.49219 4.7188-1.4844 1.1133-1 1.6719-2.4102 1.6719-4.2344 0-1.8203-0.55859-3.2227-1.6719-4.2031-1.1055-0.98828-2.6797-1.4844-4.7188-1.4844z"/>
  </symbol>
 </defs>
 <g>
  <path d="m321.89 399.8s43.391-36.793 42.043-91.984c0 0 0.035156-68.32 15.793-88.02 0 0-17.73 80.672 16.082 117.57 33.836 36.895 117.95 21.707 117.95 21.707s-31.551 18.426-97.227 13.148c0 0-52.594 15.77-76.25 43.367z" fill-rule="evenodd"/>
  <path d="m323.59 401.82c1.8125-1.5469 44.328-38.258 42.973-94.078 0-0.60547 0.22266-67.547 15.223-86.309l-4.6367-2.2188c-0.73828 3.3359-17.629 82.441 16.699 119.92 34.43 37.531 116.87 23.141 120.37 22.512l-1.8047-4.8711c-0.3125 0.16797-31.773 17.922-95.68 12.789l-0.49219-0.042968-0.48047 0.16797c-2.1719 0.63672-53.602 16.297-77.492 44.16l3.7305-0.28125-18.402-15.77zm18.703 15.453c22.859-26.668 74.48-42.379 74.996-42.547l-0.97266 0.10156c65.754 5.2969 97.453-12.723 98.762-13.496l-1.793-4.8828c-0.81641 0.15625-83.082 14.516-115.53-20.887-32.492-35.469-15.625-114.42-15.445-115.21l-4.6484-2.2188c-16.152 20.203-16.375 86.832-16.375 89.68 1.2891 53.379-40.691 89.609-41.113 89.98l-2.3633 2.0039 2.3516 2.0039 18.402 15.77 2.0156 1.7266z" fill-rule="evenodd"/>
  <path d="m252.58 510.77c-8.8125 9.0938-21.426 11.168-28.211 4.582-6.7656-6.5859-5.1406-19.273 3.6953-28.336l65.902-68.051c8.8242-9.1055 21.449-11.168 28.211-4.5703 6.8086 6.5195 5.1289 19.254-3.6719 28.301z" fill-rule="evenodd"/>
  <path d="m250.69 508.92c-7.7852 8.0312-18.762 10.047-24.496 4.5234-5.7109-5.5547-4.0195-16.598 3.7617-24.605l65.902-68.062c4.5469-4.6797 10.496-7.5469 15.902-7.6289 3.4727-0.042969 6.4297 1.0195 8.5781 3.1133 2.1602 2.0703 3.3281 4.9727 3.3828 8.4219 0.10156 5.4219-2.5664 11.469-7.125 16.152zm69.719-64.391c5.5898-5.7695 8.7266-13.027 8.6016-19.926-0.089844-4.8945-1.8125-9.1055-5.0078-12.129-3.1602-3.0781-7.4141-4.6719-12.309-4.6016-6.8867 0.10156-14.035 3.4727-19.621 9.2383l-65.91 68.051c-9.8008 10.09-11.434 24.484-3.6406 32.078 7.8281 7.5469 22.164 5.4648 31.965-4.6484z" fill-rule="evenodd"/>
  <path d="m414.04 163.7c-19.531 18.199-34.531 40.266-43.391 63.762-16.543 43.938-10.293 87.504 16.711 116.55 42.785 45.93 124.32 39.75 181.77-13.777 31.91-29.703 50.992-68.758 52.348-107.14 1.0078-28.293-8.1328-54.273-25.703-73.148-42.719-45.895-124.25-39.734-181.73 13.758zm166.26 0.66016c13.91 14.941 20.844 35 20.035 57.992-1.1641 32.816-17.809 66.504-45.641 92.41-48.91 45.574-117.03 52.227-151.88 14.84-21.414-23.027-26.039-58.43-12.387-94.707 7.707-20.473 20.855-39.75 38.012-55.754 48.949-45.512 117.08-52.156 151.86-14.781z" fill-rule="evenodd"/>
  <path d="m527.77 145.06-139.85 133.39-5.4727-5.7383 139.85-133.39z" fill-rule="evenodd"/>
  <path d="m570.8 159.09-173.2 162.45-5.4258-5.7852 173.2-162.45z" fill-rule="evenodd"/>
  <path d="m596.62 191.32-165.68 159.2-5.4961-5.7188 165.68-159.2z" fill-rule="evenodd"/>
  <path d="m598.86 237.49-115.12 117.25-5.6523-5.5469 115.12-117.25z" fill-rule="evenodd"/>
  <path d="m591.09 268.72-116.2-116.17 5.5977-5.6016 116.2 116.17z" fill-rule="evenodd"/>
  <path d="m565.25 306.32-128-131.25 5.6758-5.5352 128 131.25z" fill-rule="evenodd"/>
  <path d="m529.73 331.1-121.58-122.61 5.6289-5.582 121.58 122.61z" fill-rule="evenodd"/>
  <path d="m485.61 347.21-98.949-102.19 5.6875-5.5078 98.949 102.19z" fill-rule="evenodd"/>
  <path d="m377.98 402.74s-43.379-36.793-42.055-91.965c0 0 0-68.344-15.805-88.02 0 0 17.73 80.629-16.082 117.55-33.836 36.859-117.94 21.707-117.94 21.707s31.539 18.414 97.25 13.125c0 0 52.562 15.77 76.203 43.379z" fill-rule="evenodd"/>
  <path d="m379.68 400.73c-0.42578-0.34766-42.391-36.68-41.113-89.891 0-2.8906-0.19141-69.551-16.387-89.723l-4.6367 2.2188c0.17969 0.79688 17.035 79.734-15.445 115.2-32.469 35.371-114.68 21.043-115.52 20.898l-1.793 4.8711c1.3203 0.77344 33.02 18.77 98.785 13.484l-0.97266-0.11328c0.51563 0.16797 52.09 15.895 74.949 42.559l1.7266 2.0039 1.9922-1.7031 18.426-15.77 2.3516-2.0273zm-18.109 16.07c-23.867-27.855-75.273-43.535-77.461-44.172l-0.46875-0.15625-0.49219 0.042969c-63.93 5.1289-95.391-12.602-95.703-12.777l-1.7812 4.8828c3.4844 0.63672 85.914 14.973 120.34-22.523 34.34-37.496 17.449-116.56 16.711-119.92l-4.6367 2.2188c15.031 18.75 15.211 85.703 15.211 86.375-1.332 55.719 41.172 92.445 42.973 93.98l-0.011719-4.0195-18.414 15.773z" fill-rule="evenodd"/>
  <path d="m447.29 513.71c8.793 9.1055 21.391 11.145 28.211 4.6016 6.7656-6.6094 5.1523-19.285-3.6836-28.379l-65.945-68.051c-8.7812-9.082-21.426-11.145-28.203-4.582-6.7969 6.5742-5.1055 19.266 3.6719 28.359z" fill-rule="evenodd"/>
  <path d="m445.39 515.55c9.7656 10.113 24.09 12.207 31.941 4.6797 7.8047-7.6367 6.1836-22.043-3.6172-32.133l-65.934-68.039c-5.5664-5.7695-12.711-9.1289-19.609-9.2305-4.9062-0.089844-9.1602 1.5-12.332 4.582-7.8047 7.5469-6.1836 21.941 3.6055 32.09zm-62.148-71.715c-7.7617-8.0742-9.4414-19.105-3.7305-24.629 2.1289-2.0938 5.1055-3.1367 8.5781-3.0898 5.4102 0.078125 11.367 2.9336 15.895 7.6172l65.934 68.051c7.7852 8.0312 9.4648 19.086 3.7422 24.664-5.7344 5.5117-16.723 3.4727-24.461-4.5586z" fill-rule="evenodd"/>
  <path d="m271.41 182.12c17.168 16.004 30.32 35.27 38 55.754 13.688 36.266 9.0508 71.656-12.398 94.695-13.922 14.941-33.441 23.285-56.461 24.102-32.805 1.1641-67.594-13.035-95.402-38.953-48.922-45.539-60.414-113.02-25.602-150.43 13.922-14.941 33.434-23.285 56.426-24.113 32.816-1.1562 67.605 13.023 95.438 38.941zm-167.33-29.223c-42.75 45.93-30.789 126.82 26.668 180.29 31.887 29.715 72.184 45.965 110.57 44.586 28.312-0.99609 53.594-11.938 71.176-30.824 27.047-29.043 33.285-72.598 16.711-116.52-8.8242-23.508-23.832-45.574-43.391-63.762-31.898-29.715-72.207-45.965-110.59-44.598-28.312 1.0117-53.578 11.965-71.141 30.836z" fill-rule="evenodd"/>
  <path d="m177.53 142.29 139.88 133.39-5.4648 5.7305-139.88-133.39z" fill-rule="evenodd"/>
  <path d="m134.49 156.22 173.16 162.46-5.418 5.7734-173.16-162.46z" fill-rule="evenodd"/>
  <path d="m108.74 188.55 165.65 159.19-5.4961 5.7188-165.65-159.19z" fill-rule="evenodd"/>
  <path d="m106.67 234.88 115.08 117.27-5.6602 5.5547-115.08-117.27z" fill-rule="evenodd"/>
  <path d="m103.17 266.08 116.17-116.2 5.6016 5.5977-116.17 116.2z" fill-rule="evenodd"/>
  <path d="m128.95 303.77 128.01-131.26 5.668 5.5273-128.01 131.26z" fill-rule="evenodd"/>
  <path d="m164.47 328.46 121.57-122.64 5.625 5.5742-121.57 122.64z" fill-rule="evenodd"/>
  <path d="m208.54 344.66 98.965-102.21 5.7031 5.5234-98.965 102.21z" fill-rule="evenodd"/>
  <path d="m290.07 95.031c0 33.027 26.621 59.762 59.484 59.762 4.3438 0 8.6133-0.48047 12.668-1.3789-3.3945-5.5234-12.902-18.445-30.98-26.039-0.92969-0.4375-22.434-10.562-27.094-29.512-2.5078-10.281 0.40234-20.922 8.625-31.605l-0.19141 0.30078c0.35938-0.59375 9.8008-14.684 25.391-16.172 10.336-0.97266 20.629 3.7617 30.543 14.066l0.3125 0.3125 0.25781 0.40234c5.7891 8.9492 23.879 31.484 39.895 31.91 0.023437-0.69531 0.042969-1.3672 0.042969-2.0625 0-33.008-26.609-59.773-59.473-59.773-32.859 0.015624-59.48 26.785-59.48 59.789z"/>
  <path d="m361.61 70.605c-7.7617-7.9727-15.422-11.691-22.715-11.031-11.176 1.0195-18.559 11.938-18.613 12.039l-0.125 0.15625-0.089844 0.125c-6.4414 8.3672-8.793 16.34-6.9766 23.766 3.5508 14.617 21.816 23.297 21.852 23.32 22.781 9.5547 33.543 26.621 36.344 31.707 18.75-7.4258 32.848-24.07 36.656-44.43-22.723-1.3125-43.574-31.508-46.332-35.652z"/>
  <use x="70" y="728" xlink:href="#l"/>
  <use x="111.097656" y="728" xlink:href="#c"/>
  <use x="138.714844" y="728" xlink:href="#a"/>
  <use x="176.695312" y="728" xlink:href="#h"/>
  <use x="214.484375" y="728" xlink:href="#b"/>
  <use x="241.253906" y="728" xlink:href="#a"/>
  <use x="279.234375" y="728" xlink:href="#g"/>
  <use x="338.816406" y="728" xlink:href="#f"/>
  <use x="378.902344" y="728" xlink:href="#e"/>
  <use x="434.902344" y="728" xlink:href="#d"/>
  <use x="490.628906" y="728" xlink:href="#k"/>
  <use x="509.824219" y="728" xlink:href="#j"/>
  <use x="543.15625" y="728" xlink:href="#b"/>
  <use x="569.925781" y="728" xlink:href="#a"/>
  <use x="607.90625" y="728" xlink:href="#c"/>
  <use x="655.019531" y="728" xlink:href="#i"/>
 </g>
</svg>
